<?xml version="1.0" encoding="utf-8"?>
<!-- Generator: Adobe Illustrator 16.0.0, SVG Export Plug-In . SVG Version: 6.00 Build 0)  -->
<!DOCTYPE svg PUBLIC "-//W3C//DTD SVG 1.1//EN" "http://www.w3.org/Graphics/SVG/1.1/DTD/svg11.dtd">
<svg version="1.1" id="Layer_1" xmlns="http://www.w3.org/2000/svg" xmlns:xlink="http://www.w3.org/1999/xlink" x="0px" y="0px"
	 width="100px" height="100px" viewBox="0 0 100 100" enable-background="new 0 0 100 100" xml:space="preserve">
<g>
	<path d="M24.55,67h21.998l23.287,16.643c0.347,0.249,0.756,0.346,1.166,0.346c0.312,0,0.625-0.089,0.914-0.236
		C72.58,83.409,73,82.708,73,81.958V67h3.722C82.389,67,87,62.604,87,57.349V26.833C87,21.438,82.293,17,76.722,17H24.55
		C19.195,17,15,21.252,15,26.833v30.516C15,62.783,19.105,67,24.55,67z M19,26.833C19,23.495,21.438,21,24.55,21h52.172
		C80.066,21,83,23.662,83,26.833v30.516C83,60.399,80.184,63,76.722,63H71c-1.104,0-2,0.776-2,1.881v13.182L48.356,63.315
		C48.016,63.071,47.608,63,47.19,63H24.55C21.282,63,19,60.605,19,57.349V26.833z"/>
	<path d="M28,33h45c1.104,0,2-0.896,2-2s-0.896-2-2-2H28c-1.104,0-2,0.896-2,2S26.896,33,28,33z"/>
	<path d="M28,42h27c1.104,0,2-0.896,2-2s-0.896-2-2-2H28c-1.104,0-2,0.896-2,2S26.896,42,28,42z"/>
</g>
</svg>
