<?xml version="1.0" encoding="utf-8"?>
<!-- Generator: Adobe Illustrator 16.0.0, SVG Export Plug-In . SVG Version: 6.00 Build 0)  -->
<!DOCTYPE svg PUBLIC "-//W3C//DTD SVG 1.1//EN" "http://www.w3.org/Graphics/SVG/1.1/DTD/svg11.dtd">
<svg version="1.1" id="Layer_1" xmlns="http://www.w3.org/2000/svg" xmlns:xlink="http://www.w3.org/1999/xlink" x="0px" y="0px"
	 width="100px" height="100px" viewBox="0 0 100 100" enable-background="new 0 0 100 100" xml:space="preserve">
<g>
	<path d="M48.883,78.215c3.722,3.722,8.671,5.771,13.936,5.772c0,0,0,0,0.001,0c5.265,0,10.214-2.051,13.936-5.773
		c3.721-3.72,5.761-8.661,5.743-13.913c-0.017-5.239-2.076-10.176-5.801-13.899c-3.642-3.643-8.602-5.648-13.966-5.648
		c-2.371,0-4.74,0.411-6.93,1.196L29.365,19.514c-1.121-1.121-2.636-1.739-4.266-1.739c-1.673,0-3.304,0.672-4.476,1.843
		c-1.154,1.154-1.788,2.688-1.785,4.317c0.002,1.628,0.639,3.159,1.789,4.308l11.138,11.203l0.885,5.012
		c0.073,0.413,0.274,0.792,0.574,1.085L44.637,56.66C41.555,64.001,43.189,72.521,48.883,78.215z M36.477,43.127l-0.882-4.995
		c-0.071-0.402-0.264-0.772-0.551-1.062L23.458,25.417c-0.399-0.399-0.62-0.928-0.621-1.488c-0.001-0.56,0.217-1.087,0.613-1.482
		c0.813-0.813,2.313-0.876,3.085-0.104l27.367,27.366c0.584,0.585,1.468,0.751,2.224,0.416c2.027-0.896,4.311-1.371,6.604-1.371
		c4.296,0,8.251,1.59,11.138,4.477c2.972,2.972,4.615,6.908,4.629,11.084c0.014,4.179-1.609,8.11-4.572,11.072
		c-2.967,2.967-6.91,4.602-11.106,4.602h-0.001c-4.196-0.001-8.141-1.635-11.107-4.601c-4.773-4.773-5.968-12.039-2.973-18.08
		c0.309-0.624,0.271-1.364-0.099-1.954l-0.489-0.777c-0.084-0.134-0.184-0.257-0.297-0.367L36.477,43.127z"/>
	<path d="M56.805,70.923c1.76,1.76,4.086,2.729,6.549,2.729l0,0c2.389,0,4.633-0.928,6.316-2.611
		c3.574-3.574,3.564-9.184-0.021-12.771l-1.729-1.729c-0.375-0.375-0.883-0.586-1.414-0.586l0,0c-0.53,0-1.039,0.211-1.414,0.586
		l-9.92,9.92c-0.781,0.78-0.781,2.047,0,2.828L56.805,70.923z M66.506,60.784l0.314,0.314c2,2.001,2.01,5.126,0.021,7.114
		c-0.929,0.928-2.168,1.439-3.488,1.439c-1.395,0-2.716-0.554-3.721-1.558l-0.219-0.22L66.506,60.784z"/>
</g>
</svg>
