<?xml version="1.0" encoding="utf-8"?>
<!-- Generator: Adobe Illustrator 16.0.0, SVG Export Plug-In . SVG Version: 6.00 Build 0)  -->
<!DOCTYPE svg PUBLIC "-//W3C//DTD SVG 1.1//EN" "http://www.w3.org/Graphics/SVG/1.1/DTD/svg11.dtd">
<svg version="1.1" id="Layer_1" xmlns="http://www.w3.org/2000/svg" xmlns:xlink="http://www.w3.org/1999/xlink" x="0px" y="0px"
	 width="100px" height="100px" viewBox="0 0 100 100" enable-background="new 0 0 100 100" xml:space="preserve">
<g>
	<path d="M34,51.5h32c1.104,0,2-0.896,2-2s-0.896-2-2-2H34c-1.104,0-2,0.896-2,2S32.896,51.5,34,51.5z"/>
	<path d="M50.197,82.915c18.448,0,33.457-15.009,33.457-33.458C83.654,31.009,68.646,16,50.197,16S16.74,31.009,16.74,49.457
		C16.74,67.906,31.749,82.915,50.197,82.915z M50.197,20c16.242,0,29.457,13.214,29.457,29.457
		c0,16.243-13.215,29.458-29.457,29.458S20.74,65.7,20.74,49.457C20.74,33.215,33.955,20,50.197,20z"/>
</g>
</svg>
