<?xml version="1.0" encoding="utf-8"?>
<!-- Generator: Adobe Illustrator 16.0.0, SVG Export Plug-In . SVG Version: 6.00 Build 0)  -->
<!DOCTYPE svg PUBLIC "-//W3C//DTD SVG 1.1//EN" "http://www.w3.org/Graphics/SVG/1.1/DTD/svg11.dtd">
<svg version="1.1" id="Layer_1" xmlns="http://www.w3.org/2000/svg" xmlns:xlink="http://www.w3.org/1999/xlink" x="0px" y="0px"
	 width="100px" height="100px" viewBox="0 0 100 100" enable-background="new 0 0 100 100" xml:space="preserve">
<g>
	<path d="M66,47.5H51.5V33.881c0-1.104-0.896-2-2-2s-2,0.896-2,2V47.5H34c-1.104,0-2,0.896-2,2s0.896,2,2,2h13.5v14.381
		c0,1.104,0.896,2,2,2s2-0.896,2-2V51.5H66c1.104,0,2-0.896,2-2S67.104,47.5,66,47.5z"/>
	<path d="M50.236,16c-18.448,0-33.457,15.008-33.457,33.457c0,18.449,15.009,33.458,33.457,33.458
		c18.449,0,33.458-15.009,33.458-33.458C83.694,31.009,68.686,16,50.236,16z M50.236,78.915c-16.242,0-29.457-13.215-29.457-29.458
		C20.779,33.215,33.994,20,50.236,20c16.243,0,29.458,13.214,29.458,29.457C79.694,65.7,66.479,78.915,50.236,78.915z"/>
</g>
</svg>
