<?xml version="1.0" encoding="utf-8"?>
<!-- Generator: Adobe Illustrator 16.0.0, SVG Export Plug-In . SVG Version: 6.00 Build 0)  -->
<!DOCTYPE svg PUBLIC "-//W3C//DTD SVG 1.1//EN" "http://www.w3.org/Graphics/SVG/1.1/DTD/svg11.dtd">
<svg version="1.1" id="Layer_1" xmlns="http://www.w3.org/2000/svg" xmlns:xlink="http://www.w3.org/1999/xlink" x="0px" y="0px"
	 width="100px" height="100px" viewBox="0 0 100 100" enable-background="new 0 0 100 100" xml:space="preserve">
<g>
	<path d="M50.619,34.368c-0.602-0.089-1.237,0.09-1.703,0.552L19.485,64.13c-0.785,0.776-0.789,2.044-0.011,2.827
		c0.364,0.367,0.834,0.563,1.312,0.589c0.545,0.028,1.098-0.164,1.515-0.579l28.3-28.085l28.088,28.301
		c0.364,0.367,0.835,0.563,1.312,0.589c0.544,0.029,1.098-0.164,1.516-0.578c0.784-0.777,0.789-2.045,0.011-2.827l-29.21-29.434
		C51.855,34.467,51.222,34.282,50.619,34.368z"/>
</g>
</svg>
